<!DOCTYPE svg PUBLIC "-//W3C//DTD SVG 1.1//EN" "http://www.w3.org/Graphics/SVG/1.1/DTD/svg11.dtd">
<!-- Uploaded to: SVG Repo, www.svgrepo.com, Transformed by: SVG Repo Mixer Tools -->
<svg fill="#fff" version="1.1" id="Capa_1" xmlns="http://www.w3.org/2000/svg" xmlns:xlink="http://www.w3.org/1999/xlink" width="64px" height="64px" viewBox="0 0 329.4 329.4" xml:space="preserve" stroke="#fff">
<g id="SVGRepo_bgCarrier" stroke-width="0"/>
<g id="SVGRepo_tracerCarrier" stroke-linecap="round" stroke-linejoin="round"/>
<g id="SVGRepo_iconCarrier"> <g> <g> <path d="M68.175,329.4h193.05c4.478,0,8.101-3.623,8.101-8.101V90.45V8.1c0-4.477-3.623-8.1-8.101-8.1H68.175 c-4.477,0-8.1,3.623-8.1,8.1V90.45V321.3C60.075,325.777,63.698,329.4,68.175,329.4z M76.275,98.55h176.85V313.2H76.275V98.55z M76.275,82.35V16.2h176.85V82.35H76.275z"/> <path d="M164.7,22.275c-14.887,0-27,12.113-27,27s12.113,27,27,27c14.887,0,27-12.113,27-27S179.587,22.275,164.7,22.275z M164.7,60.075c-5.957,0-10.8-4.844-10.8-10.8s4.843-10.8,10.8-10.8c5.959,0,10.8,4.844,10.8,10.8S170.659,60.075,164.7,60.075z"/> <path d="M223.425,141.075h-90.45c-4.477,0-8.1,3.623-8.1,8.1c0,4.478,3.623,8.1,8.1,8.1h90.45c4.478,0,8.1-3.623,8.1-8.1 C231.524,144.698,227.902,141.075,223.425,141.075z"/> <path d="M223.425,195.075h-90.45c-4.477,0-8.1,3.622-8.1,8.1s3.623,8.101,8.1,8.101h90.45c4.478,0,8.1-3.623,8.1-8.101 S227.902,195.075,223.425,195.075z"/> <path d="M223.425,249.075h-90.45c-4.477,0-8.1,3.623-8.1,8.1c0,4.478,3.623,8.101,8.1,8.101h90.45c4.478,0,8.1-3.623,8.1-8.101 C231.524,252.698,227.902,249.075,223.425,249.075z"/> <path d="M103.275,141.075c-10.45,0-10.45,16.2,0,16.2C113.724,157.275,113.724,141.075,103.275,141.075z"/> <path d="M103.275,195.075c-10.45,0-10.45,16.2,0,16.2C113.724,211.275,113.724,195.075,103.275,195.075z"/> <path d="M103.275,249.075c-10.45,0-10.45,16.2,0,16.2C113.724,265.275,113.724,249.075,103.275,249.075z"/> </g> </g> </g>
</svg>